<svg xmlns="http://www.w3.org/2000/svg" viewBox="0 0 64 64">
  <rect x="2" y="2" width="60" height="60" rx="14" fill="#f8fafc"/>
  <path d="M32 8c7 5 14 7 20 7v18c0 12-9 19-20 23C21 52 12 45 12 33V15c6 0 13-2 20-7z" fill="#111827"/>
  <path d="M32 11.5c6.2 4.2 12.3 6.1 17.5 6.4v15c0 10.3-7.7 16.4-17.5 20-9.8-3.6-17.5-9.7-17.5-20v-15c5.2-.3 11.3-2.2 17.5-6.4z" fill="#f8fafc"/>
  <rect x="17" y="17" width="30" height="9" rx="2.5" fill="#dc2626"/>
  <text x="32" y="24.5" text-anchor="middle" font-family="Arial, Helvetica, sans-serif" font-weight="bold" font-size="7.5" fill="#ffffff">ROUTE</text>
  <text x="32" y="45" text-anchor="middle" font-family="Arial, Helvetica, sans-serif" font-weight="bold" font-size="19" fill="#111827">42</text>
</svg>
